<?xml version="1.0" encoding="UTF-8"?>
<svg width="33px" height="29px" viewBox="0 0 33 29" version="1.1" xmlns="http://www.w3.org/2000/svg" xmlns:xlink="http://www.w3.org/1999/xlink">
    <!-- Generator: Sketch 61.2 (89653) - https://sketch.com -->
    <title>like-icon</title>
    <desc>Created with Sketch.</desc>
    <g id="Page-1" stroke="none" stroke-width="1" fill="none" fill-rule="evenodd">
        <g id="test" transform="translate(-29.000000, -509.000000)" fill="#FEC202" fill-rule="nonzero">
            <g id="like/favorite" transform="translate(29.000000, 509.000000)">
                <path d="M16.6482016,3.13599819 C18.5872372,0.97191606 21.425208,-0.287244822 24.5406204,0.0560455872 C28.9399641,0.540387778 32.5051497,4.31336192 32.9506451,8.95196891 C33.2745306,12.3423642 31.9795995,15.4190965 29.7930664,17.4569405 L29.7930664,17.4569405 L17.7023574,28.526607 C17.01242,29.1577977 15.9869861,29.1577977 15.2976599,28.526607 L15.2976599,28.526607 L3.20695083,17.4569405 C1.01980664,15.4190965 -0.274513386,12.3423642 0.0493721734,8.95196891 C0.492423175,4.31336192 4.05821985,0.540387778 8.45756352,0.0560455872 C11.5729759,-0.287244822 14.4109468,0.97191606 16.3499824,3.13599819 C16.4318704,3.22810049 16.5657024,3.22810049 16.6482016,3.13599819 Z M14.573237,5.73171486 C13.050228,4.06111725 11.0098557,3.21820626 8.93438432,3.44939981 C6.00356471,3.77558658 3.62804973,6.31654683 3.33289148,9.44047918 C3.11712063,11.7237866 3.97938982,13.7958533 5.43645377,15.1682668 L5.43645377,15.1682668 L15.9398257,24.882749 C16.2560217,25.1751961 16.7439783,25.1751961 17.0601743,24.882749 L17.0601743,24.882749 L27.5635462,15.1682668 C29.0206102,13.7958533 29.8828794,11.7237866 29.6671085,9.44047918 C29.3719503,6.31654683 26.9964353,3.77558658 24.0656157,3.44939981 C21.9901443,3.21820626 19.949772,4.06111725 18.426763,5.73171486 C17.7498702,6.47420268 17.1090387,7.28195707 16.5042685,8.15497804 L16.5042685,8.15497804 L16.5,8.15942528 C16.451611,8.09520315 16.0853135,7.43108139 14.862942,6.05370634 L14.862942,6.05370634 Z" id="like-icon"></path>
            </g>
        </g>
    </g>
</svg>