<?xml version="1.0" encoding="UTF-8"?>
<svg width="33px" height="29px" viewBox="0 0 33 29" version="1.1" xmlns="http://www.w3.org/2000/svg" xmlns:xlink="http://www.w3.org/1999/xlink">
    <!-- Generator: Sketch 61.2 (89653) - https://sketch.com -->
    <title>like-icon-active</title>
    <desc>Created with Sketch.</desc>
    <g id="Page-1" stroke="none" stroke-width="1" fill="none" fill-rule="evenodd">
        <g id="test" transform="translate(-29.000000, -509.000000)" fill="#FEC202" fill-rule="nonzero">
            <g id="like/favorite" transform="translate(29.000000, 509.000000)">
                <path d="M24.5406204,0.0560455872 C21.425208,-0.287244822 18.5872372,0.97191606 16.6482016,3.13599819 C16.5657024,3.22810049 16.4318704,3.22810049 16.3499824,3.13599819 C14.4109468,0.97191606 11.5729759,-0.287244822 8.45756352,0.0560455872 C4.05821985,0.540387778 0.492423175,4.31336192 0.0493721734,8.95196891 C-0.274513386,12.3423642 1.01980664,15.4190965 3.20695083,17.4569405 L15.2976599,28.526607 C15.9869861,29.1577977 17.01242,29.1577977 17.7023574,28.526607 L29.7930664,17.4569405 C31.9795995,15.4190965 33.2745306,12.3423642 32.9506451,8.95196891 C32.5051497,4.31336192 28.9399641,0.540387778 24.5406204,0.0560455872 Z" id="like-icon-active"></path>
            </g>
        </g>
    </g>
</svg>