<?xml version="1.0" encoding="UTF-8"?>
<svg width="28px" height="26px" viewBox="0 0 28 26" version="1.1" xmlns="http://www.w3.org/2000/svg" xmlns:xlink="http://www.w3.org/1999/xlink">
    <!-- Generator: Sketch 61.2 (89653) - https://sketch.com -->
    <title>coach-tab</title>
    <desc>Created with Sketch.</desc>
    <g id="Page-1" stroke="none" stroke-width="1" fill="none" fill-rule="evenodd" opacity="0.99">
        <g id="test" transform="translate(-174.000000, -756.000000)">
            <g id="tab-bar" transform="translate(0.000000, 723.000000)">
                <g id="coach-tab" transform="translate(176.000000, 35.000000)">
                    <path d="M8.12231609,-1.22826365 L8.12789721,-1.22830047 L8.30386254,-1.22905028 L15.7013638,-1.22903878 L15.8775928,-1.22826365 L16.0497677,-1.22672288 L16.2179897,-1.22441413 L16.3823604,-1.22133463 L16.5429815,-1.21748114 L16.6999547,-1.2128499 L16.8533815,-1.20743664 L17.0033636,-1.20123652 L17.1500023,-1.19424411 L17.2955734,-1.18631864 L17.502633,-1.17325562 L17.6383611,-1.16343847 L17.7711951,-1.15279685 L17.9012321,-1.14132187 L18.0312965,-1.128714 L18.2147125,-1.10892517 L18.335703,-1.09445572 L18.4543127,-1.0791068 L18.5706274,-1.06286736 L18.6847301,-1.04572642 L18.7967004,-1.02767324 L18.8996849,-1.00994968 C18.9268244,-1.00509935 18.9268244,-1.00509935 18.9608226,-0.998860868 L19.0677855,-0.978484175 L19.1728641,-0.957163612 L19.2761199,-0.934893166 L19.3776095,-0.911668831 L19.4773852,-0.887488993 L19.5754948,-0.862354812 L19.6640628,-0.83848742 C19.6879387,-0.83186099 19.6879387,-0.83186099 19.7196292,-0.82287449 L19.8137551,-0.795380915 L19.9063505,-0.766963797 L19.9974467,-0.737640635 L20.0870729,-0.70743304 L20.175257,-0.676366712 L20.2543507,-0.647370347 C20.2758742,-0.639295068 20.2758742,-0.639295068 20.3048882,-0.628222973 L20.3895859,-0.595147512 L20.4729389,-0.561332409 L20.5549787,-0.526818377 L20.6390491,-0.490156917 L20.7545684,-0.437758258 L20.8323097,-0.401140191 L20.9089262,-0.364020035 L20.9870567,-0.325121604 L21.0959253,-0.269295756 L21.1690793,-0.230736769 L21.2373667,-0.194044408 C22.5179793,0.500400347 23.5293136,1.52585981 24.2162294,2.82826642 L24.2740352,2.93967516 L24.3296154,3.05020869 L24.3683502,3.12963289 L24.4220739,3.24336218 L24.4595966,3.32575046 L24.5111338,3.44322062 L24.5456573,3.52519656 L24.5794899,3.6083898 L24.6125927,3.69283343 L24.6449293,3.77855846 L24.673754,3.85789964 C24.6815389,3.87982947 24.6815389,3.87982947 24.6919257,3.90961368 L24.7222086,3.99867192 L24.7516244,4.08911593 L24.7801528,4.18097765 L24.8077774,4.27429133 L24.8344858,4.36909413 L24.8602692,4.46542663 L24.88326,4.55572319 C24.8893694,4.58046132 24.8893694,4.58046132 24.8971991,4.61289183 L24.9206533,4.71325199 L24.9431767,4.81531579 L24.9647733,4.91914278 L24.985449,5.02479691 L25.0052113,5.13234642 L25.0240688,5.24186369 L25.042031,5.35342499 L25.0591079,5.46711025 L25.07531,5.58300275 L25.0909881,5.7040398 L25.1120565,5.88296401 L25.1252785,6.00727913 L25.1376714,6.13420977 L25.1494369,6.26624074 L25.1650857,6.46361538 L25.1746457,6.60046851 L25.1834136,6.74038101 L25.1913959,6.88345414 L25.1985986,7.0297897 L25.205027,7.17948991 L25.2106859,7.33265724 L25.2155796,7.48939431 L25.2197118,7.64980381 L25.2231081,7.81547413 L25.2267308,8.06756782 L25.228225,8.24295584 L25.2290503,8.50803167 L25.2290503,23.2290503 L24,23.2290503 L8.29787981,23.2290357 L8.12231609,23.2281713 L7.95014124,23.2266305 L7.7819192,23.2243218 L7.61754846,23.2212423 L7.45692737,23.2173888 L7.29995425,23.2127575 L7.14652741,23.2073443 L6.9965453,23.2011441 L6.8499066,23.1941517 L6.70433549,23.1862263 L6.49727594,23.1731632 L6.36154779,23.1633461 L6.22871383,23.1527045 L6.09867682,23.1412295 L5.9686124,23.1286216 L5.78519637,23.1088328 L5.66420586,23.0943633 L5.54559623,23.0790144 L5.42928153,23.062775 L5.31517884,23.045634 L5.20320855,23.0275809 L5.100224,23.0098573 C5.07308453,23.005007 5.07308453,23.005007 5.03908632,22.9987685 L4.93212342,22.9783918 L4.82704476,22.9570712 L4.72378902,22.9348008 L4.62229943,22.9115765 L4.52252373,22.8873966 L4.42441414,22.8622624 L4.33584614,22.838395 C4.31197022,22.8317686 4.31197022,22.8317686 4.28027968,22.8227821 L4.18615376,22.7952885 L4.0935584,22.7668714 L4.00246221,22.7375483 L3.91283597,22.7073407 L3.82465193,22.6762743 L3.74555822,22.647278 C3.72403466,22.6392027 3.72403466,22.6392027 3.6950207,22.6281306 L3.61032298,22.5950551 L3.52696996,22.56124 L3.44493019,22.526726 L3.36085982,22.4900645 L3.24534046,22.4376659 L3.16759924,22.4010478 L3.09098266,22.3639277 L3.01285223,22.3250292 L2.90398365,22.2692034 L2.83082959,22.2306444 L2.76254219,22.193952 C1.48192957,21.4995073 0.470595298,20.4740478 -0.21632054,19.1716412 L-0.274126255,19.0602325 L-0.329706497,18.9496989 L-0.368441325,18.8702747 L-0.422164974,18.7565454 L-0.459687696,18.6741572 L-0.511224887,18.556687 L-0.545748393,18.4747111 L-0.579581016,18.3915178 L-0.612683823,18.3070742 L-0.645020437,18.2213492 L-0.673845073,18.142008 C-0.681629965,18.1200782 -0.681629965,18.1200782 -0.692016782,18.090294 L-0.722299739,18.0012357 L-0.751715536,17.9107917 L-0.780243906,17.81893 L-0.807868527,17.7256163 L-0.834576935,17.6308135 L-0.86036034,17.534481 L-0.883351112,17.4441844 C-0.889460546,17.4194463 -0.889460546,17.4194463 -0.897290209,17.3870158 L-0.920744406,17.2866556 L-0.94326777,17.1845918 L-0.964864352,17.0807648 L-0.985540078,16.9751107 L-1.00530239,16.8675612 L-1.0241599,16.7580439 L-1.0421221,16.6464826 L-1.05919905,16.5327974 L-1.07540113,16.4169049 L-1.09107921,16.2958678 L-1.11214757,16.1169436 L-1.12536957,15.9926285 L-1.13776252,15.8656979 L-1.14952798,15.7336669 L-1.16517678,15.5362922 L-1.17473681,15.3994391 L-1.1835047,15.2595266 L-1.19148701,15.1164535 L-1.19868969,14.9701179 L-1.2051181,14.8204177 L-1.21077703,14.6672504 L-1.21567073,14.5105133 L-1.21980292,14.3501038 L-1.22319919,14.1844335 L-1.22682185,13.9323398 L-1.22831126,13.7582692 L-1.22905028,13.580066 L-1.2290394,8.41466969 L-1.22827642,8.23620995 L-1.22675953,8.06187229 L-1.22448656,7.8915544 L-1.22145498,7.72515382 L-1.21766178,7.56256793 L-1.21310348,7.40369406 L-1.20777611,7.24842954 L-1.20167516,7.0966718 L-1.19479555,6.9483185 L-1.18700413,6.8011516 L-1.1741513,6.59166128 L-1.16449789,6.45442353 L-1.15403561,6.3201359 L-1.14275608,6.18869988 L-1.13037571,6.05736199 L-1.110922,5.87195192 L-1.09670866,5.74974247 L-1.08163442,5.62996175 L-1.06568879,5.51252202 L-1.04886129,5.39733842 L-1.03114167,5.28432931 L-1.01370767,5.18017353 C-1.00894749,5.1527893 -1.00894749,5.1527893 -1.00286825,5.11872291 L-0.98287708,5.01081651 L-0.96196327,4.90482818 L-0.940120896,4.80069397 L-0.917345907,4.69835434 L-0.89363649,4.5977542 L-0.868993442,4.49884284 L-0.84553011,4.40932167 C-0.83903311,4.38525362 -0.83903311,4.38525362 -0.830287419,4.35354177 L-0.803333986,4.25865781 L-0.775475023,4.16531674 L-0.74672685,4.07348431 L-0.717109736,3.98312857 L-0.686647891,3.89421918 L-0.658139901,3.81426794 C-0.650220262,3.79256546 -0.650220262,3.79256546 -0.639433586,3.76350244 L-0.606990384,3.67807959 L-0.573815584,3.59399805 L-0.539948119,3.51122475 L-0.503998724,3.42646051 L-0.452520513,3.30977073 L-0.416557667,3.231269 L-0.380091828,3.15388239 L-0.341895563,3.07499996 L-0.286991646,2.96491376 L-0.249075123,2.89095322 L-0.212940538,2.8218118 C0.470595298,1.52585981 1.48192957,0.500400347 2.76905801,-0.197552433 L2.87926785,-0.256342126 L2.98859829,-0.312861662 L3.06728765,-0.352315199 L3.17984666,-0.406978747 L3.26153701,-0.445227003 L3.37786279,-0.49769397 L3.45911617,-0.532873206 L3.54159314,-0.56735532 L3.62532512,-0.601099599 L3.71034127,-0.634067891 L3.78883203,-0.66338484 C3.81058284,-0.671323378 3.81058284,-0.671323378 3.8403337,-0.681989615 L3.92868032,-0.712872353 L4.01840722,-0.742872464 L4.10954361,-0.771968338 L4.20212088,-0.800142476 L4.29617325,-0.827381411 L4.39173834,-0.853675537 L4.48107118,-0.877059831 C4.50560891,-0.883290233 4.50560891,-0.883290233 4.53801412,-0.891333017 L4.63755151,-0.915246047 L4.73876536,-0.938206994 L4.84171245,-0.960219865 L4.94645411,-0.981290674 L5.05305604,-1.00142707 L5.16158823,-1.02063797 L5.27212472,-1.03893325 L5.38474329,-1.05632342 L5.49952525,-1.07281937 L5.61948272,-1.08879146 L5.79650636,-1.1102193 L5.91954357,-1.12367168 L6.04514493,-1.13627813 L6.17585973,-1.1482516 L6.3709938,-1.16415575 L6.50632749,-1.1738743 L6.64466349,-1.18278608 L6.78610195,-1.19089808 L6.93074359,-1.19821665 L7.07868959,-1.20474754 L7.2300414,-1.21049586 L7.38490064,-1.21546617 L7.54336901,-1.21966249 L7.7070757,-1.22311194 L7.95599692,-1.22678876 L8.12231609,-1.22826365 Z" id="Rectangle" stroke="#979797" stroke-width="2.45810056"></path>
                    <path d="M16.7103207,8.72620125 C17.3891064,8.72620125 17.9393709,9.2764658 17.9393709,9.95525153 L17.9393709,12.0446561 C17.9393709,12.7234418 17.3891064,13.2737064 16.7103207,13.2737064 L14.319918,13.2737064 C13.6411322,13.2737064 13.0908677,12.7234418 13.0908677,12.0446561 L13.0908677,9.95525153 C13.0908677,9.2764658 13.6411322,8.72620125 14.319918,8.72620125 L16.7103207,8.72620125 Z M9.45468189,8.60329571 C10.0025426,8.60329571 10.2012101,8.66033938 10.4014998,8.76745547 C10.6017894,8.87457156 10.7589779,9.03176007 10.866094,9.23204974 C10.9732101,9.43233942 11.0302538,9.63100694 11.0302538,10.1788676 L11.0302538,11.5752289 C11.0302538,12.1230896 10.9732101,12.3217571 10.866094,12.5220468 C10.7589779,12.7223365 10.6017894,12.879525 10.4014998,12.9866411 C10.2012101,13.0937572 10.0025426,13.1508008 9.45468189,13.1508008 L7.75732246,13.1508008 C7.20946178,13.1508008 7.01079426,13.0937572 6.81050458,12.9866411 C6.61021491,12.879525 6.4530264,12.7223365 6.34591031,12.5220468 C6.23879422,12.3217571 6.18175055,12.1230896 6.18175055,11.5752289 L6.18175055,10.1788676 C6.18175055,9.63100694 6.23879422,9.43233942 6.34591031,9.23204974 C6.4530264,9.03176007 6.61021491,8.87457156 6.81050458,8.76745547 C7.01079426,8.66033938 7.20946178,8.60329571 7.75732246,8.60329571 L9.45468189,8.60329571 Z" id="Combined-Shape" fill="#E7E7E7"></path>
                </g>
            </g>
        </g>
    </g>
</svg>