<?xml version="1.0" encoding="UTF-8"?>
<svg width="21px" height="22px" viewBox="0 0 21 22" version="1.1" xmlns="http://www.w3.org/2000/svg" xmlns:xlink="http://www.w3.org/1999/xlink">
    <!-- Generator: Sketch 61.2 (89653) - https://sketch.com -->
    <title>home-tab-active</title>
    <desc>Created with Sketch.</desc>
    <g id="Page-1" stroke="none" stroke-width="1" fill="none" fill-rule="evenodd">
        <g id="test" transform="translate(-51.000000, -757.000000)" fill="#FEC202" fill-rule="nonzero">
            <g id="tab-bar" transform="translate(0.000000, 723.000000)">
                <path d="M60.2259719,34.1843186 L60.0910932,34.2257328 L59.8676727,34.3044096 L59.7918085,34.3330744 C59.1181339,34.6012137 58.5452862,35.0104977 57.7643342,35.7391724 L52.8114324,40.3612788 L52.5911833,40.5734249 L52.3971525,40.7697883 L52.3336814,40.8370033 L52.2169502,40.9655863 L52.0876017,41.1171862 L51.9615925,41.2791637 L51.8861601,41.3827393 L51.8118834,41.4907529 C51.4883764,41.9832612 51.280703,42.4633703 51.154266,42.9869243 L51.128051,43.1006325 L51.0901496,43.293985 L51.0684137,43.4277235 L51.0488371,43.5741494 L51.029064,43.7686128 L51.0178087,43.9210313 L51.0063615,44.1785895 L51,44.5098361 L51.0004501,50.6358141 C51.015603,51.7469768 51.1412403,52.4775647 51.4652197,53.1923542 L51.5729414,53.4140443 C52.034464,54.2920271 52.6816618,54.9490061 53.488544,55.3870532 L53.6978797,55.4941969 C54.5168717,55.8780367 55.2822542,56 56.4810128,56 L66.5181048,56 C67.7168634,56 68.4822459,55.8780367 69.2341551,55.5268536 L69.4525447,55.4175039 C70.3174558,54.9490061 70.9646536,54.2920271 71.3961789,53.4729503 L71.5017275,53.2604508 C71.8798526,52.4290812 72,51.6521313 72,50.4352555 L72,44.7080948 L71.9977235,44.3906953 L71.9899972,44.1001817 L71.9667706,43.7300339 L71.9579233,43.6377603 L71.9215464,43.3699176 L71.8967983,43.2256536 L71.8566934,43.03844 C71.7184146,42.4633703 71.5107412,41.9832612 71.2165837,41.534465 L71.1129575,41.3827393 L71.0375251,41.2791637 L70.953065,41.1695567 L70.8210671,41.0095226 L70.6654362,40.8370033 L70.4523894,40.6174974 L70.2164496,40.3885802 L65.234923,35.7393028 C64.4538314,35.0104977 63.8809838,34.6012137 63.2073091,34.3330744 L62.9789596,34.2498316 L62.7731457,34.1843186 C61.9347199,33.9385605 61.0643977,33.9385605 60.2259719,34.1843186 Z M62.125804,36.460041 L62.2030261,36.4837334 L62.3555115,36.5383114 C62.6861726,36.6699227 63.0320876,36.9012322 63.6556928,37.483093 L68.608455,42.105069 L68.7999397,42.2899137 L68.9495155,42.4422046 L69.0913597,42.6002656 L69.1995883,42.7385599 L69.273865,42.8465734 C69.418278,43.0669044 69.5164539,43.2938721 69.5785266,43.5509044 L69.61847,43.7462759 L69.6380467,43.8927018 L69.6458248,43.9755534 L69.6575368,44.1685095 L69.6643576,44.4084364 L69.6665686,44.7080948 L69.6665686,50.4352555 L69.6619361,50.7964291 L69.6481272,51.1065353 C69.6144801,51.632395 69.5352374,51.9349738 69.4140796,52.2022819 L69.3385283,52.3558754 C69.1244783,52.762163 68.8103687,53.0810198 68.41013,53.2983048 L68.2588233,53.3749979 C67.9954949,53.4979868 67.697421,53.5784271 67.1793904,53.6125827 L66.8739011,53.6266004 L66.5181048,53.6313029 L56.4810128,53.6313029 L56.1252165,53.6266004 L55.8197272,53.6125827 C55.3016966,53.5784271 55.0036227,53.4979868 54.7402943,53.3749979 L54.5889876,53.2983048 C54.1887489,53.0810198 53.8746393,52.762163 53.6605893,52.3558754 L53.585038,52.2022819 C53.4316239,51.8638073 53.3454143,51.4687817 53.3338814,50.6355038 L53.3330959,44.5500016 L53.3375766,44.281804 L53.3468078,44.0669576 C53.3507079,44.0028162 53.3554466,43.9454398 53.3610709,43.8927018 L53.3806476,43.7462759 L53.4205911,43.5509044 C53.4826637,43.2938721 53.5808396,43.0669044 53.7252526,42.8465734 L53.7995293,42.7385599 L53.9077579,42.6002656 L54.0496021,42.4422046 L54.1991779,42.2899137 L54.3906627,42.105069 L59.3434248,37.483093 C59.96703,36.9012322 60.312945,36.6699227 60.6436062,36.5383114 L60.8345463,36.4716589 L60.8733137,36.460041 C61.2888175,36.3382492 61.7103001,36.3382492 62.125804,36.460041 Z" id="home-tab-active"></path>
            </g>
        </g>
    </g>
</svg>