<?xml version="1.0" encoding="UTF-8"?>
<svg width="32px" height="32px" viewBox="0 0 32 32" version="1.1" xmlns="http://www.w3.org/2000/svg" xmlns:xlink="http://www.w3.org/1999/xlink">
    <!-- Generator: Sketch 61.2 (89653) - https://sketch.com -->
    <title>add-photo-icon</title>
    <desc>Created with Sketch.</desc>
    <g id="Page-1" stroke="none" stroke-width="1" fill="none" fill-rule="evenodd">
        <g id="test" transform="translate(-316.000000, -54.000000)" fill="#FFFFFF" fill-rule="nonzero">
            <path d="M334.03103,54.7647059 C337.347868,54.7647059 339.297062,55.1003901 341.07877,55.9400486 L341.07877,55.9400486 L341.438622,56.117998 L341.611237,56.208652 C343.410127,57.1707086 344.829291,58.5898735 345.795803,60.3971715 L345.795803,60.3971715 L345.896082,60.589039 L346.069596,60.9412323 C346.89961,62.7029378 347.235294,64.6521321 347.235294,67.96897 L347.235294,67.96897 L347.235294,72.03103 C347.235294,75.3478679 346.89961,77.2970622 346.059951,79.0787703 L346.059951,79.0787703 L345.882002,79.4386217 L345.791348,79.6112371 C344.829291,81.4101265 343.410127,82.8292914 341.602829,83.7958034 L341.602829,83.7958034 L341.410961,83.8960819 L341.058768,84.0695961 C339.297062,84.8996099 337.347868,85.2352941 334.03103,85.2352941 L334.03103,85.2352941 L329.96897,85.2352941 C326.652132,85.2352941 324.702938,84.8996099 322.92123,84.0599514 L322.92123,84.0599514 L322.561378,83.882002 L322.388763,83.791348 C320.589873,82.8292914 319.170709,81.4101265 318.204197,79.6028285 L318.204197,79.6028285 L318.103918,79.410961 L317.930404,79.0587677 C317.131559,77.3632177 316.792871,75.5007703 316.766313,72.4116187 L316.766313,72.4116187 L316.764706,67.96897 C316.764706,64.6521321 317.10039,62.7029378 317.940049,60.9212297 L317.940049,60.9212297 L318.117998,60.5613783 L318.208652,60.3887629 C319.170709,58.5898735 320.589873,57.1707086 322.397171,56.2041966 L322.397171,56.2041966 L322.589039,56.1039181 L322.941232,55.9304039 C324.636782,55.1315587 326.49923,54.792871 329.588381,54.7663126 L329.588381,54.7663126 Z M334.03103,57.2352941 L329.599465,57.2368549 C326.849387,57.2605357 325.327161,57.5373537 324.014218,58.1557164 L324.014218,58.1557164 L323.709688,58.3055061 L323.553889,58.3872493 C322.185546,59.1190476 321.119048,60.1855457 320.391705,61.5454809 L320.391705,61.5454809 L320.319586,61.682027 L320.165361,61.994215 C319.511606,63.3818119 319.235294,64.9862508 319.235294,67.9685232 L319.235294,67.9685232 L319.236855,72.4005352 C319.260536,75.150613 319.537354,76.6728385 320.155716,77.9857824 L320.155716,77.9857824 L320.305506,78.2903123 L320.387249,78.4461105 C321.119048,79.8144543 322.185546,80.8809524 323.545481,81.6082953 L323.545481,81.6082953 L323.682027,81.6804141 L323.994215,81.8346389 C325.381812,82.4883944 326.986251,82.7647059 329.96897,82.7647059 L329.96897,82.7647059 L334.412358,82.7631314 C337.152818,82.7399835 338.677649,82.4603896 339.985782,81.8442836 L339.985782,81.8442836 L340.290312,81.6944939 L340.446111,81.6127507 C341.814454,80.8809524 342.880952,79.8144543 343.608295,78.4545191 L343.608295,78.4545191 L343.680414,78.317973 L343.834639,78.005785 C344.488394,76.6181881 344.764706,75.0137492 344.764706,72.03103 L344.764706,72.03103 L344.763131,67.5876422 C344.739984,64.8471821 344.46039,63.3223513 343.844284,62.0142176 L343.844284,62.0142176 L343.694494,61.7096877 L343.612751,61.5538895 C342.880952,60.1855457 341.814454,59.1190476 340.454519,58.3917047 L340.454519,58.3917047 L340.317973,58.3195859 L340.005785,58.1653611 C338.618188,57.5116056 337.013749,57.2352941 334.03103,57.2352941 L334.03103,57.2352941 Z M332.045631,61.372093 C332.719932,61.372093 333.266561,61.9187221 333.266561,62.5930233 L333.265724,68.778093 L339.452607,68.7790698 C340.126909,68.7790698 340.673538,69.3256989 340.673538,70 C340.673538,70.6743011 340.126909,71.2209302 339.452607,71.2209302 L333.265724,71.220093 L333.266561,77.4069767 C333.266561,78.0812779 332.719932,78.627907 332.045631,78.627907 C331.37133,78.627907 330.8247,78.0812779 330.8247,77.4069767 L330.823724,71.220093 L324.638654,71.2209302 C323.964353,71.2209302 323.417724,70.6743011 323.417724,70 C323.417724,69.3256989 323.964353,68.7790698 324.638654,68.7790698 L330.823724,68.778093 L330.8247,62.5930233 C330.8247,61.9187221 331.37133,61.372093 332.045631,61.372093 Z" id="add-photo-icon"></path>
        </g>
    </g>
</svg>